<?xml version="1.0" encoding="UTF-8" standalone="no"?>
<!-- Generator: Adobe Illustrator 18.0.0, SVG Export Plug-In . SVG Version: 6.00 Build 0)  -->

<svg
   xmlns:dc="http://purl.org/dc/elements/1.1/"
   xmlns:cc="http://creativecommons.org/ns#"
   xmlns:rdf="http://www.w3.org/1999/02/22-rdf-syntax-ns#"
   xmlns:svg="http://www.w3.org/2000/svg"
   xmlns="http://www.w3.org/2000/svg"
   xmlns:sodipodi="http://sodipodi.sourceforge.net/DTD/sodipodi-0.dtd"
   xmlns:inkscape="http://www.inkscape.org/namespaces/inkscape"
   version="1.1"
   id="svg2"
   sodipodi:docname="Bsp_Menschen_zusammenarbeit.svg"
   inkscape:version="0.91 r"
   x="0px"
   y="0px"
   viewBox="0 0 1052.4 744.1"
   enable-background="new 0 0 1052.4 744.1"
   xml:space="preserve"><metadata
     id="metadata193"><rdf:RDF><cc:Work
         rdf:about=""><dc:format>image/svg+xml</dc:format><dc:type
           rdf:resource="http://purl.org/dc/dcmitype/StillImage" /></cc:Work></rdf:RDF></metadata><defs
     id="defs191" /><sodipodi:namedview
     inkscape:document-units="px"
     inkscape:pageopacity="0.0"
     inkscape:window-x="0"
     inkscape:window-height="776"
     inkscape:window-width="1280"
     inkscape:guide-bbox="true"
     inkscape:current-layer="svg2"
     inkscape:pageshadow="2"
     inkscape:window-maximized="1"
     inkscape:window-y="24"
     showguides="true"
     borderopacity="1.0"
     inkscape:cx="642.88862"
     inkscape:zoom="0.24748738"
     inkscape:cy="960.29119"
     showgrid="false"
     pagecolor="#ffffff"
     bordercolor="#666666"
     id="base" /><text
     transform="matrix(1 0 0 1 786.0073 57.7145)"
     font-family="'Calibri'"
     font-size="19.2796"
     id="text4">Mit welchen Menschen </text>
<text
     transform="matrix(1 0 0 1 786.0073 81.8141)"
     font-family="'Calibri'"
     font-size="19.2796"
     id="text6">arbeitest du zusammen?</text>
<text
     transform="matrix(1 0 0 1 786.0073 105.9136)"
     font-family="'Calibri'"
     font-size="19.2796"
     id="text8">Woran? Wie?</text>
<path
     id="rect2985-1"
     inkscape:connector-curvature="0"
     sodipodi:nodetypes="cccccc"
     d="M892.8,633.1c-1.6,0-2.8,1.6-2.8,2.7v4.5  h5.6v-4.2C895.6,634.4,894.6,633.1,892.8,633.1L892.8,633.1z" /><text
     transform="matrix(1 0 0 1 884.7028 644.6559)"
     font-family="'ComicSansMS-Bold'"
     font-size="4.3898"
     id="text12">Ich – </text>
<text
     transform="matrix(1 0 0 1 884.7028 650.1432)"
     font-family="'ComicSansMS-Bold'"
     font-size="4.3898"
     id="text14">Physiklehrer</text>
<text
     transform="matrix(1 0 0 1 800.5732 612.7333)"
     font-family="'ComicSansMS-Bold'"
     font-size="4.3898"
     id="text16">Frau Müller – Sekräterin</text>
<text
     transform="matrix(1 0 0 1 800.5732 623.7079)"
     font-family="'ComicSansMS'"
     font-size="4.3898"
     id="text18">Termine abstimmen</text>
<text
     transform="matrix(1 0 0 1 800.5732 629.1952)"
     font-family="'ComicSansMS'"
     font-size="4.3898"
     id="text20">Stundenpläne (2x Jährlich) </text>
<path
     id="path3020"
     inkscape:connector-curvature="0"
     sodipodi:nodetypes="cccccc"
     d="M925.2,700.3c-1.6,0-2.8,1.6-2.8,2.7v4.5h5.6  v-4.2C928,701.6,927,700.3,925.2,700.3L925.2,700.3z" /><path
     id="rect2985-1-1"
     inkscape:connector-curvature="0"
     sodipodi:nodetypes="cccccc"
     d="M931.9,700.1c-1.6,0-2.8,1.6-2.8,2.7v4.5  h5.6v-4.2C934.6,701.4,933.7,700.1,931.9,700.1L931.9,700.1z" /><path
     id="rect2985-1-4"
     inkscape:connector-curvature="0"
     sodipodi:nodetypes="cccccc"
     d="M938.6,700.2c-1.6,0-2.8,1.6-2.8,2.7v4.5  h5.6v-4.2C941.4,701.5,940.4,700.2,938.6,700.2L938.6,700.2z" /><path
     id="path3044"
     inkscape:connector-curvature="0"
     fill="none"
     stroke="#000000"
     stroke-width="1.0997"
     d="M913.6,658.5  c4,10.6,7.5,22.2,13.4,31.6" /><text
     transform="matrix(1 0 0 1 922.5573 674.5775)"
     font-family="'ComicSansMS'"
     font-size="4.3898"
     id="text29">die Klasse unterrichten</text>
<text
     transform="matrix(1 0 0 1 922.2792 713.5537)"
     font-family="'ComicSansMS-Bold'"
     font-size="4.3898"
     id="text31">die Klasse</text>
<path
     id="path3092"
     inkscape:connector-curvature="0"
     sodipodi:nodetypes="cccccc"
     d="M811.6,597.3c-1.6,0-2.8,1.6-2.8,2.7v4.5h5.6  v-4.2C814.4,598.6,813.4,597.3,811.6,597.3L811.6,597.3z" /><path
     id="rect2985-1-9"
     inkscape:connector-curvature="0"
     sodipodi:nodetypes="cccccc"
     d="M1014.1,663c-1.6,0-2.8,1.6-2.8,2.7v4.5  h5.6V666C1016.9,664.3,1016,663,1014.1,663L1014.1,663z" /><circle
     id="path2990-7-6"
     cx="892.82147"
     cy="629.70142"
     r="2.2321427" /><path
     id="path3121"
     inkscape:connector-curvature="0"
     sodipodi:nodetypes="cccccc"
     d="M1020.2,663.2c-1.6,0-2.8,1.6-2.8,2.7v4.5h5.6  v-4.2C1023,664.5,1022,663.2,1020.2,663.2L1020.2,663.2z" /><circle
     id="path3123"
     cx="811.31287"
     cy="593.64142"
     r="2.2763731" /><text
     transform="matrix(1 0 0 1 1006.6086 679.2907)"
     font-family="'ComicSansMS-Bold'"
     font-size="4.3898"
     id="text39">Eltern</text>
<path
     id="path3137"
     inkscape:connector-curvature="0"
     fill="none"
     stroke="#000000"
     stroke-width="1.0997"
     d="M946.8,698.8  c20.1-11.5,41-22.9,61.3-33.4" /><path
     id="path3139"
     inkscape:connector-curvature="0"
     fill="none"
     stroke="#000000"
     stroke-width="1.0997"
     d="M1005.7,660.5  c-28.3-3.7-57.4-5.9-85-11.4" /><text
     transform="matrix(1 0 0 1 946.7122 640.3958)"
     font-family="'ComicSansMS'"
     font-size="4.3898"
     id="text43">informieren</text>
<text
     transform="matrix(1 0 0 1 946.7122 645.8831)"
     font-family="'ComicSansMS'"
     font-size="4.3898"
     id="text45">Elternabende</text>
<text
     transform="matrix(1 0 0 1 946.7122 651.3704)"
     font-family="'ComicSansMS'"
     font-size="4.3898"
     id="text47">in der Schule treffen</text>
<text
     transform="matrix(0.8269 0.5623 -0.5623 0.8269 1020.8883 650.9285)"
     font-family="'ComicSansMS'"
     font-size="4.3898"
     id="text49">oft besorgt!</text>
<text
     transform="matrix(1 0 0 1 847.3094 674.1848)"
     font-family="'ComicSansMS'"
     font-size="4.3898"
     id="text51">Zeugnisse schreiben</text>
<path
     id="path3173"
     inkscape:connector-curvature="0"
     fill="none"
     stroke="#000000"
     stroke-width="1.0997"
     d="M894.1,653.2  c-1.2,6.5-5.3,10.9-8.8,16.3" /><path
     id="path3177"
     inkscape:connector-curvature="0"
     fill="none"
     stroke="#000000"
     stroke-width="1.0997"
     d="M851.9,668  c-9.5-8.8-12.2-21.1-14.7-33.4" /><path
     id="path3179"
     inkscape:connector-curvature="0"
     fill="none"
     stroke="#000000"
     stroke-width="1.0997"
     d="M831.3,634.6  c-3.9,54.2,41.2,66,86.4,70.7" /><text
     transform="matrix(0.9798 0.1998 -0.1998 0.9798 854.168 657.919)"
     font-family="'ComicSansMS'"
     font-size="4.3898"
     id="text56">Versetzungen!</text>
<text
     transform="matrix(0.9798 0.1998 -0.1998 0.9798 853.0715 663.2956)"
     font-family="'ComicSansMS'"
     font-size="4.3898"
     id="text58">Emotional</text>
<path
     id="path3189"
     inkscape:connector-curvature="0"
     sodipodi:nodetypes="cccccc"
     d="M948.2,594.3c-1.6,0-2.8,1.6-2.8,2.7v4.5h5.6  v-4.2C951,595.6,950,594.2,948.2,594.3L948.2,594.3z" /><circle
     id="path3191"
     cx="948.4411"
     cy="590.86346"
     r="2.5289114" /><text
     transform="matrix(1 0 0 1 942.2426 608.129)"
     font-family="'ComicSansMS-Bold'"
     font-size="4.3898"
     id="text62">Mathelehrer</text>
<path
     id="path3197"
     inkscape:connector-curvature="0"
     fill="none"
     stroke="#000000"
     stroke-width="1.0997"
     d="M900.2,630.9  c15.1-11.2,28-22.6,43.9-30.8" /><text
     transform="matrix(1 0 0 1 915.8023 623.132)"
     font-family="'ComicSansMS'"
     font-size="4.3898"
     id="text65">Austausch über Inhalte</text>
<text
     transform="matrix(0.9798 0.1998 -0.1998 0.9798 776.8184 591.1486)"
     font-family="'ComicSansMS'"
     font-size="4.3898"
     id="text67">Sehr hilfreich.</text>
<text
     transform="matrix(1 0 0 1 937.7244 358.3843)"
     fill="#888888"
     font-family="'Calibri'"
     font-size="12.2189"
     id="text69">Personenbezeichung</text>
<text
     transform="matrix(1 0 0 1 937.1149 414.2089)"
     fill="#888888"
     font-family="'Calibri'"
     font-size="12.2189"
     id="text71">Bemerkung</text>
<text
     transform="matrix(1 0 0 1 830.3417 378.3353)"
     font-family="'ComicSansMS-Bold'"
     font-size="10.6333"
     id="text73">Frau Müller – Sekräterin</text>
<text
     transform="matrix(0.9083 -0.4183 0.4183 0.9083 833.966 424.9423)"
     font-family="'ComicSansMS'"
     font-size="7.7517"
     id="text75">Sehr hilfreich!</text>
<path
     id="path3339"
     inkscape:connector-curvature="0"
     fill="none"
     stroke="#000000"
     stroke-width="1.972"
     stroke-linecap="round"
     stroke-linejoin="round"
     d="  M785.7,483.9c41.5-1.3,83.8,3.6,124.8-4.4" /><text
     transform="matrix(1 0 0 1 937.1149 473.8517)"
     fill="#888888"
     font-family="'Calibri'"
     font-size="12.2189"
     id="text78">Arbeit/Aufgabe mit </text>
<text
     transform="matrix(1 0 0 1 937.1149 489.1254)"
     fill="#888888"
     font-family="'Calibri'"
     font-size="12.2189"
     id="text80">der Person</text>
<text
     transform="matrix(1 0 0 1 796.4131 474.0496)"
     font-family="'ComicSansMS'"
     font-size="10.6333"
     id="text82">Termine abstimmen</text>
<path
     id="path4169"
     inkscape:connector-curvature="0"
     sodipodi:nodetypes="cccccc"
     d="m 658.02857,418.28572 c -8.6,-0.1 -14.4,8.1 -14.7,14.3 l 0,23.3 29.4,0 0,-22.1 c -0.2,-8.7 -5.3,-15.6 -14.7,-15.5 l 0,0 z" /><circle
     id="path4171"
     cx="657.93561"
     cy="400.53879"
     r="13.135513" /><path
     id="path4173"
     inkscape:connector-curvature="0"
     fill="none"
     stroke="#000000"
     d="M771.4,307.7h279.3" /><path
     id="path4175"
     inkscape:connector-curvature="0"
     fill="none"
     stroke="#000000"
     d="M771.4,507.7h279.3" /><text
     transform="matrix(1 0 0 1 778.1501 329.8574)"
     font-family="'Calibri'"
     font-size="19.2796"
     id="text88">Legende</text>
<text
     transform="matrix(1 0 0 1 778.1501 529.8574)"
     font-family="'Calibri'"
     font-size="19.2796"
     id="text90">Beispiel</text>
<path
     id="path4203"
     inkscape:connector-curvature="0"
     fill="none"
     stroke="#000000"
     d="M762.7,3.7v740.4" /><rect
     x="310.39999"
     y="108.2"
     width="325"
     height="115"
     id="rect93"
     style="fill:none" /><text
     font-size="17"
     id="text95"
     x="310.38901"
     y="120.2411"
     style="font-size:17px;font-family:MyriadPro-Regular">Art Director</text>
<rect
     x="294.39999"
     y="477.20001"
     width="325"
     height="115"
     id="rect97"
     style="fill:none" /><text
     font-size="17"
     id="text99"
     x="294.38901"
     y="489.28448"
     style="font-size:17px;font-family:MyriadPro-Regular">Creative Director</text>
<text
     font-size="17"
     id="text103"
     x="18.558004"
     y="203.92656"
     style="font-size:17px;font-family:MyriadPro-Regular">Client</text>
<rect
     x="613"
     y="128.5"
     fill="none"
     width="162.5"
     height="140.2"
     id="rect105" /><rect
     x="270.79999"
     y="252.3"
     width="97.199997"
     height="140.2"
     id="rect113"
     style="fill:none" /><rect
     x="472.89999"
     y="128.3"
     width="97.199997"
     height="140.2"
     id="rect137"
     style="fill:none" /><rect
     x="633.79999"
     y="454"
     width="97.199997"
     height="171.10001"
     id="rect153"
     style="fill:none" /><text
     font-size="12"
     id="text155"
     x="635.19257"
     y="476.83673"
     style="font-size:12px;font-family:MyriadPro-Regular">I, Designer</text>
<rect
     x="134.8"
     y="440.10001"
     width="97.199997"
     height="140.2"
     id="rect157"
     style="fill:none" /><text
     font-size="12"
     id="text173"
     x="18.558004"
     y="228.57205"
     style="font-size:12px;font-family:MyriadPro-Regular">gives jobs</text>
<line
     stroke-miterlimit="10"
     x1="413.39999"
     y1="139.5"
     x2="606.40002"
     y2="179.5"
     id="line175"
     style="fill:#ffffff;stroke:#000000;stroke-miterlimit:10" /><line
     stroke-miterlimit="10"
     x1="393.39999"
     y1="446.5"
     x2="596.40002"
     y2="198.5"
     id="line177"
     style="fill:none;stroke:#000000;stroke-miterlimit:10" /><line
     stroke-miterlimit="10"
     x1="356.39999"
     y1="139.5"
     x2="619.40002"
     y2="418.5"
     id="line179"
     style="fill:none;stroke:#000000;stroke-miterlimit:10" /><line
     stroke-miterlimit="10"
     x1="445.39999"
     y1="477.20001"
     x2="619.40002"
     y2="424.29999"
     id="line181"
     style="fill:none;stroke:#000000;stroke-miterlimit:10" /><line
     stroke-miterlimit="10"
     x1="57.92841"
     y1="277.73627"
     x2="254.57384"
     y2="419.89481"
     id="line183"
     style="fill:none;stroke:#000000;stroke-width:0.99999994;stroke-miterlimit:10" /><line
     stroke-miterlimit="10"
     x1="43.670887"
     y1="175.76251"
     x2="289.39862"
     y2="121.57091"
     id="line185"
     style="fill:none;stroke:#000000;stroke-width:1;stroke-miterlimit:10" /><line
     x1="669.09998"
     y1="358.10001"
     x2="682.40002"
     y2="260.5"
     id="line187"
     style="fill:none" /><line
     stroke-miterlimit="10"
     x1="319.39999"
     y1="147.5"
     x2="341.39999"
     y2="447.79999"
     id="line189"
     style="fill:none;stroke:#000000;stroke-miterlimit:10" /><circle
     r="2.2321427"
     cy="697.38"
     cx="925.14288"
     id="circle4321" /><circle
     id="circle4323"
     cx="931.14288"
     cy="697.38"
     r="2.2321427" /><circle
     r="2.2321427"
     cy="697.38"
     cx="938.78571"
     id="circle4325" /><circle
     id="circle4327"
     cx="1014.6071"
     cy="660.09436"
     r="2.2321427" /><circle
     r="2.2321427"
     cy="660.09436"
     cx="1020.4285"
     id="circle4329" /><text
     xml:space="preserve"
     style="font-style:normal;font-variant:normal;font-weight:normal;font-stretch:normal;font-size:16.03846931px;font-family:'Source Sans Pro';-inkscape-font-specification:'Source Sans Pro';text-align:start;writing-mode:lr-tb;text-anchor:start;opacity:1;fill:#000000;fill-opacity:1;stroke:none;stroke-width:4.5;stroke-linecap:round;stroke-linejoin:bevel;stroke-miterlimit:4;stroke-dasharray:none;stroke-dashoffset:0;stroke-opacity:1"
     x="98.135223"
     y="361.46939"
     id="text4327"><tspan
       sodipodi:role="line"
       id="tspan4329"
       x="98.135223"
       y="361.46939">pass on results and</tspan><tspan
       sodipodi:role="line"
       x="98.135223"
       y="381.51749"
       id="tspan4331">get client’s feedback</tspan></text>
<text
     xml:space="preserve"
     style="font-style:normal;font-variant:normal;font-weight:normal;font-stretch:normal;font-size:10.62071991px;font-family:'Source Sans Pro';-inkscape-font-specification:'Source Sans Pro';text-align:start;writing-mode:lr-tb;text-anchor:start;opacity:1;fill:#000000;fill-opacity:1;stroke:none;stroke-width:4.5;stroke-linecap:round;stroke-linejoin:bevel;stroke-miterlimit:4;stroke-dasharray:none;stroke-dashoffset:0;stroke-opacity:1"
     x="289.31082"
     y="207.79465"
     id="text4341"><tspan
       sodipodi:role="line"
       id="tspan4343"
       x="289.31082"
       y="207.79465">-Consult on the </tspan><tspan
       sodipodi:role="line"
       x="289.31082"
       y="221.07054"
       id="tspan4361">straegy of the company</tspan><tspan
       sodipodi:role="line"
       x="289.31082"
       y="234.34645"
       id="tspan4353">- get new jobs </tspan><tspan
       sodipodi:role="line"
       x="289.31082"
       y="247.62234"
       id="tspan4369">- manage </tspan><tspan
       sodipodi:role="line"
       x="289.31082"
       y="260.89825"
       id="tspan4367">- time schedule</tspan><tspan
       sodipodi:role="line"
       x="289.31082"
       y="274.17413"
       id="tspan4355">- share project </tspan><tspan
       sodipodi:role="line"
       x="289.31082"
       y="287.45004"
       id="tspan4359">management of jobs</tspan><tspan
       sodipodi:role="line"
       x="289.31082"
       y="300.72595"
       id="tspan4371">among each other</tspan><tspan
       sodipodi:role="line"
       x="289.31082"
       y="314.00183"
       id="tspan4357" /></text>
<text
     xml:space="preserve"
     style="font-style:normal;font-variant:normal;font-weight:normal;font-stretch:normal;font-size:11.65338612px;font-family:'Source Sans Pro';-inkscape-font-specification:'Source Sans Pro';text-align:start;writing-mode:lr-tb;text-anchor:start;opacity:1;fill:#000000;fill-opacity:1;stroke:none;stroke-width:4.5;stroke-linecap:round;stroke-linejoin:bevel;stroke-miterlimit:4;stroke-dasharray:none;stroke-dashoffset:0;stroke-opacity:1"
     x="483.25754"
     y="131.74005"
     id="text4361"><tspan
       sodipodi:role="line"
       id="tspan4363"
       x="483.25754"
       y="131.74005">- gives tasks</tspan><tspan
       sodipodi:role="line"
       x="483.25754"
       y="146.30679"
       id="tspan4365">-reviews output</tspan><tspan
       sodipodi:role="line"
       x="483.25754"
       y="160.87352"
       id="tspan4368">- passes on client’s</tspan><tspan
       sodipodi:role="line"
       x="483.25754"
       y="175.44025"
       id="tspan4370">feedback</tspan></text>
<text
     xml:space="preserve"
     style="font-style:normal;font-variant:normal;font-weight:normal;font-stretch:normal;font-size:17.03936958px;font-family:'Source Sans Pro';-inkscape-font-specification:'Source Sans Pro';text-align:start;writing-mode:lr-tb;text-anchor:start;opacity:1;fill:#000000;fill-opacity:1;stroke:none;stroke-width:4.5;stroke-linecap:round;stroke-linejoin:bevel;stroke-miterlimit:4;stroke-dasharray:none;stroke-dashoffset:0;stroke-opacity:1"
     x="613.27112"
     y="192.71774"
     id="text4372"><tspan
       sodipodi:role="line"
       id="tspan4374"
       x="613.27112"
       y="192.71774">Other colleagues</tspan><tspan
       sodipodi:role="line"
       x="613.27112"
       y="214.01695"
       id="tspan4376">Interns etc.</tspan></text>
</svg>