<?xml version="1.0" encoding="utf-8"?>
<!-- Generator: Adobe Illustrator 18.0.0, SVG Export Plug-In . SVG Version: 6.00 Build 0)  -->
<!DOCTYPE svg PUBLIC "-//W3C//DTD SVG 1.1//EN" "http://www.w3.org/Graphics/SVG/1.1/DTD/svg11.dtd">
<svg version="1.1" xmlns="http://www.w3.org/2000/svg" xmlns:xlink="http://www.w3.org/1999/xlink" x="0px" y="0px"
	 viewBox="0 0 1052.4 744.1" enable-background="new 0 0 1052.4 744.1" xml:space="preserve">
<g id="svg2" sodipodi:docname="GutSchlechtZeit_Diagrammsvg.svg" inkscape:version="0.48.4 r9939" xmlns:dc="http://purl.org/dc/elements/1.1/" xmlns:cc="http://creativecommons.org/ns#" xmlns:sodipodi="http://sodipodi.sourceforge.net/DTD/sodipodi-0.dtd" xmlns:inkscape="http://www.inkscape.org/namespaces/inkscape" xmlns:rdf="http://www.w3.org/1999/02/22-rdf-syntax-ns#" xmlns:svg="http://www.w3.org/2000/svg">
	<path fill="none" d=""/>
	<path id="path3759" stroke="#000000" d="M54.5,74.3l4,4l-4-14l-4,14L54.5,74.3z"/>
	<path id="path3762" stroke="#000000" d="M54.5,657.3l-4-4l4,14l4-14L54.5,657.3z"/>
	<path id="path2985" inkscape:connector-curvature="0" stroke="#000000" d="M54.5,667.3"/>
	<text transform="matrix(1 0 0 1 34.3452 55.1705)" font-family="'MyriadPro-Regular'" font-size="40">☺</text>
	<text transform="matrix(1 0 0 1 34.3452 705.7086)" font-family="'MyriadPro-Regular'" font-size="40">☹</text>
	<path fill="none" d=""/>
	<path id="path3762_1_" stroke="#000000" d="M1008.2,366.3l-4,4l14-4l-14-4L1008.2,366.3z"/>
	<path id="path4399" inkscape:connector-curvature="0" sodipodi:nodetypes="cc" stroke="#000000" d="M1018.2,366.3"/>
	<text transform="matrix(1 0 0 1 1004.2336 404.1306)" font-family="'Calibri'" font-size="26.1248">Zeit</text>
	<line fill="none" stroke="#000000" stroke-miterlimit="10" x1="1008.2" y1="366.3" x2="54.5" y2="366.3"/>
</g>
<g id="Layer_2">
</g>
<g id="Layer_3">
	<path fill="none" stroke="#000000" stroke-miterlimit="10" d="M74.8,74.9c24.4-4.8,55.7-6.7,68,14.9c5.5,9.7,5.2,21.6,7.1,32.6
		c1.9,11,7.9,23.1,18.9,25.3c4.2,0.8,8.5,0,12.8,0.4c20.6,1.8,28.8,27.1,32.1,47.5c14.5,89.7,29,179.3,43.5,269
		c1.2,7.6,4.8,17.2,12.5,16.7c-1.9-43.2,17.8-84,37-122.7c3.4-6.9,7.2-14.2,13.7-18.4c8.4-5.3,19.2-4.2,29.1-2.9
		c12.3,1.6,24.6,3.3,36.9,4.9c4.5,0.6,9.2,1.3,13,3.9c5.8,4,7.9,11.6,9.4,18.5c7.5,34.1,12,68.8,13.3,103.6
		c1.6,42.4-1.1,86.5,16.1,125.3c2.5,5.7,8,12.2,13.7,9.5c5.3-42,5.4-84.5,5.8-126.9c0.9-101.2,4.2-205.2,43.4-298.6
		c1.8-4.3,5-9.4,9.6-8.8c2.5,0.3,4.5,2.3,6,4.3c12.4,17,3.5,43.1,15.7,60.3c15.5,21.8,48.9,12.3,75.6,13.8
		c32,1.7,61.8,24.9,71.4,55.5c7.9,25.1,3,52.6,9.9,78c2.3,8.3,8.8,17.9,17.2,15.8c4.5-54,9-107.9,13.5-161.9
		c0.6-7.7,1.6-16.1,7.1-21.6c8.4-8.4,22.5-5.7,33.3-0.7c10.8,5,21.9,11.8,33.6,9.7c8.5-7.5,6.7-26.6,18.1-26.4
		c4.6,0.1,8.1,4,10.6,7.9c19.5,30.7,11.1,70.8,18.6,106.4c0.6,3.1,1.5,6.3,3.8,8.5c3.2,3.1,8.1,3.1,12.5,3.5
		c14.7,1.2,28.8,8.1,38.8,18.9c11.4,12.3,17.1,28.7,26.8,42.4c9.7,13.7,26.6,25.1,42.5,19.7c20.1-6.9,23.1-33.6,22.6-54.8
		c-1.1-45.9-2.2-91.8-3.3-137.8c-0.7-28.7,0.1-61.1,21-80.8"/>
	<rect x="76" y="27" fill="none" width="114" height="28"/>
	<text transform="matrix(1 0 0 1 76 35.52)"><tspan x="0" y="0" font-family="'MyriadPro-Regular'" font-size="12">excited about the new </tspan><tspan x="0" y="14.4" font-family="'MyriadPro-Regular'" font-size="12">project</tspan></text>
	<rect x="165" y="88.5" fill="none" width="134" height="51"/>
	<text transform="matrix(1 0 0 1 165 97.02)"><tspan x="0" y="0" font-family="'MyriadPro-Regular'" font-size="12">“It’s not as easy as it </tspan><tspan x="0" y="14.4" font-family="'MyriadPro-Regular'" font-size="12">seemed in the beginning”</tspan></text>
	<rect x="215" y="500.5" fill="none" width="134" height="51"/>
	<text transform="matrix(1 0 0 1 215 509.02)"><tspan x="0" y="0" font-family="'MyriadPro-Regular'" font-size="12">First problem that seems </tspan><tspan x="0" y="14.4" font-family="'MyriadPro-Regular'" font-size="12">unsolveable</tspan></text>
	<rect x="306" y="291.5" fill="none" width="134" height="51"/>
	<text transform="matrix(1 0 0 1 306 300.02)" font-family="'MyriadPro-Regular'" font-size="12">“I solved it! Cool.”</text>
	<rect x="406.3" y="619.3" fill="none" width="134" height="51"/>
	<text transform="matrix(1 0 0 1 406.3091 627.8429)"><tspan x="0" y="0" font-family="'MyriadPro-Regular'" font-size="12">Client wants to see some</tspan><tspan x="124.1" y="0" font-family="'MyriadPro-Regular'" font-size="12">-</tspan><tspan x="0" y="14.4" font-family="'MyriadPro-Regular'" font-size="12">thing + there are delays + </tspan><tspan x="0" y="28.8" font-family="'MyriadPro-Regular'" font-size="12">second huge problem</tspan></text>
	<rect x="448.3" y="114" fill="none" width="134" height="51"/>
	<text transform="matrix(1 0 0 1 448.3091 122.52)"><tspan x="0" y="0" font-family="'MyriadPro-Regular'" font-size="12">work is sent to the client </tspan><tspan x="0" y="14.4" font-family="'MyriadPro-Regular'" font-size="12">and he likes it!</tspan></text>
	<rect x="540.3" y="222" fill="none" width="134" height="51"/>
	<text transform="matrix(1 0 0 1 540.3091 230.52)" font-family="'MyriadPro-Regular'" font-size="12">happyly working.</text>
	<rect x="660.3" y="414" fill="none" width="134" height="51"/>
	<text transform="matrix(1 0 0 1 660.3091 422.52)"><tspan x="0" y="0" font-family="'MyriadPro-Regular'" font-size="12">client wants more / some</tspan><tspan x="125.8" y="0" font-family="'MyriadPro-Regular'" font-size="12">-</tspan><tspan x="0" y="14.4" font-family="'MyriadPro-Regular'" font-size="12">thing different + another </tspan><tspan x="0" y="28.8" font-family="'MyriadPro-Regular'" font-size="12">problem</tspan></text>
	<rect x="738.3" y="144" fill="none" width="134" height="51"/>
	<text transform="matrix(1 0 0 1 738.3091 152.52)"><tspan x="0" y="0" font-family="'MyriadPro-Regular'" font-size="12">solved. good in time. </tspan><tspan x="0" y="14.4" font-family="'MyriadPro-Regular'" font-size="12">“Everything will be good </tspan><tspan x="0" y="28.8" font-family="'MyriadPro-Regular'" font-size="12">in the end.”</tspan></text>
	<rect x="847.3" y="278.5" fill="none" width="134" height="51"/>
	<text transform="matrix(1 0 0 1 847.3091 287.02)"><tspan x="0" y="0" font-family="'MyriadPro-Regular'" font-size="12">last problems +  “OMG I </tspan><tspan x="0" y="14.4" font-family="'MyriadPro-Regular'" font-size="12">need to print it in 5 hours”</tspan></text>
	<rect x="895.3" y="414" fill="none" width="134" height="86.5"/>
	<text transform="matrix(1 0 0 1 895.3096 422.52)"><tspan x="0" y="0" font-family="'MyriadPro-Regular'" font-size="12">30 min before printing. </tspan><tspan x="0" y="14.4" font-family="'MyriadPro-Regular'" font-size="12">Not satisfied with the work </tspan><tspan x="0" y="28.8" font-family="'MyriadPro-Regular'" font-size="12">as much as I thought I </tspan><tspan x="0" y="43.2" font-family="'MyriadPro-Regular'" font-size="12">would be in the begin</tspan><tspan x="109.8" y="43.2" font-family="'MyriadPro-Regular'" font-size="12">-</tspan><tspan x="0" y="57.6" font-family="'MyriadPro-Regular'" font-size="12">ning.</tspan></text>
	<rect x="994.3" y="100.8" fill="none" width="134" height="86.5"/>
	<text transform="matrix(1 0 0 1 994.3096 109.27)" font-family="'MyriadPro-Regular'" font-size="12">“yeah, it’s done.”</text>
</g>
</svg>
